<?xml version="1.0" encoding="UTF-8" standalone="no"?>
<!-- Created with Inkscape (http://www.inkscape.org/) -->

<svg
   xmlns:osb="http://www.openswatchbook.org/uri/2009/osb"
   xmlns:dc="http://purl.org/dc/elements/1.1/"
   xmlns:cc="http://creativecommons.org/ns#"
   xmlns:rdf="http://www.w3.org/1999/02/22-rdf-syntax-ns#"
   xmlns:svg="http://www.w3.org/2000/svg"
   xmlns="http://www.w3.org/2000/svg"
   xmlns:sodipodi="http://sodipodi.sourceforge.net/DTD/sodipodi-0.dtd"
   xmlns:inkscape="http://www.inkscape.org/namespaces/inkscape"
   width="744.09448819"
   height="1052.3622047"
   id="svg2"
   version="1.1"
   inkscape:version="0.48.4 r9939"
   sodipodi:docname="b.svg">
  <defs
     id="defs4">
    <linearGradient
       id="linearGradient3826"
       osb:paint="solid">
      <stop
         style="stop-color:#000000;stop-opacity:1;"
         offset="0"
         id="stop3828" />
    </linearGradient>
    <clipPath
       clipPathUnits="userSpaceOnUse"
       id="clipPath5109">
      <g
         id="g5111"
         transform="translate(1.0604924,2.1209847)">
        <g
           id="g5113">
          <path
             style="font-size:medium;font-style:normal;font-variant:normal;font-weight:normal;font-stretch:normal;text-indent:0;text-align:start;text-decoration:none;line-height:normal;letter-spacing:normal;word-spacing:normal;text-transform:none;direction:ltr;block-progression:tb;writing-mode:lr-tb;text-anchor:start;baseline-shift:baseline;color:#000000;fill:#000000;fill-opacity:1;stroke:none;stroke-width:3.5999999;marker:none;visibility:visible;display:inline;overflow:visible;enable-background:accumulate;font-family:Sans;-inkscape-font-specification:Sans"
             d="m 113.33015,219.67492 c -12.04606,0 -21.812504,9.73519 -21.812504,21.78125 l 0,548.59375 c 0,12.04606 9.766444,21.78125 21.812504,21.78125 l 530.53124,0 c 12.04606,0 21.8125,-9.73519 21.8125,-21.78125 l 0,-548.59375 c 0,-12.04606 -9.76644,-21.78125 -21.8125,-21.78125 l -530.53124,0 z m 0,3.59375 530.53124,0 c 10.11394,0 18.21875,8.07356 18.21875,18.1875 l 0,548.59375 c 0,10.11394 -8.10481,18.1875 -18.21875,18.1875 l -530.53124,0 c -10.11393,0 -18.218754,-8.07356 -18.218754,-18.1875 l 0,-548.59375 c 0,-10.11394 8.104824,-18.1875 18.218754,-18.1875 z"
             id="path5115"
             inkscape:connector-curvature="0" />
          <path
             style="font-size:807.77069092px;font-style:normal;font-variant:normal;font-weight:bold;font-stretch:normal;line-height:125%;letter-spacing:0px;word-spacing:0px;fill:#000000;fill-opacity:1;stroke:none;font-family:Aharoni;-inkscape-font-specification:Aharoni Bold"
             d="m 168.46875,263.78125 0,495.46875 243.84375,0 c 73.71624,0 128.59219,-16.83286 164.59375,-50.46875 24.85744,-23.23047 37.28075,-53.35122 37.28125,-90.375 -5e-4,-28.55403 -7.72769,-53.58816 -23.15625,-75.125 -17.14387,-23.47229 -49.1418,-39.33477 -96,-47.5625 20.8574,-10.40507 36.28051,-22.98864 46.28125,-37.75 11.99993,-17.42259 17.99955,-39.07604 18,-64.96875 C 559.31205,306.85387 504.46735,263.78174 394.75,263.78125 l -226.28125,0 z m 152.125,98 27.875,0 c 14.28591,3.9e-4 25.70928,1.20555 34.28125,3.625 24.00045,7.25993 35.99968,22.15203 36,44.65625 -3.2e-4,12.82552 -4.5759,23.60137 -13.71875,32.3125 -11.42922,10.88962 -30.27622,16.3128 -56.5625,16.3125 l -27.875,0 0,-96.90625 z m 0,194.90625 31.3125,0 c 27.14344,2e-4 46.26275,0.73579 57.40625,2.1875 35.14363,5.08187 52.71839,22.01649 52.71875,50.8125 -3.6e-4,17.90701 -8.69622,31.22617 -26.125,39.9375 -15.42937,7.74362 -42.57941,11.62511 -81.4375,11.625 l -33.875,0 0,-104.5625 z"
             transform="translate(-1.0604924,-2.1209847)"
             id="path5117"
             inkscape:connector-curvature="0" />
        </g>
      </g>
    </clipPath>
  </defs>
  <sodipodi:namedview
     id="base"
     pagecolor="#ffffff"
     bordercolor="#666666"
     borderopacity="1.0"
     inkscape:pageopacity="0.0"
     inkscape:pageshadow="2"
     inkscape:zoom="0.94295822"
     inkscape:cx="362.59127"
     inkscape:cy="484.99919"
     inkscape:document-units="px"
     inkscape:current-layer="layer5"
     showgrid="false"
     inkscape:window-width="1920"
     inkscape:window-height="1019"
     inkscape:window-x="-9"
     inkscape:window-y="-9"
     inkscape:window-maximized="1"
     inkscape:snap-object-midpoints="false"
     inkscape:snap-center="false" />
  <metadata
     id="metadata7">
    <rdf:RDF>
      <cc:Work
         rdf:about="">
        <dc:format>image/svg+xml</dc:format>
        <dc:type
           rdf:resource="http://purl.org/dc/dcmitype/StillImage" />
      </cc:Work>
    </rdf:RDF>
  </metadata>
  <g
     inkscape:groupmode="layer"
     id="layer5"
     inkscape:label="Layer">
    <rect
       style="fill:#f9f9f9;fill-opacity:1;fill-rule:nonzero;stroke:none"
       id="rect5143"
       width="641.5979"
       height="642.65839"
       x="54.08511"
       y="196.54485"
       rx="20"
       ry="20" />
  </g>
  <g
     inkscape:groupmode="layer"
     id="layer2"
     inkscape:label="Base"
     style="display:inline">
    <path
       style="fill:#000000;fill-opacity:1;fill-rule:nonzero;stroke:none;display:inline"
       clip-path="url(#clipPath5109)"
       d="m 96.355446,207.14977 566.601624,0 c 11.08,0 20,8.92 20,20 l 0,583.56951 c 0,11.08 -8.92,20 -20,20 l -566.601624,0 c -11.08,0 -20,-8.92 -20,-20 l 0,-583.56951 c 0,-11.08 8.92,-20 20,-20 z"
       id="rect3767" />
  </g>
  <g
     inkscape:groupmode="layer"
     id="layer3"
     inkscape:label="B"
     style="display:inline" />
  <g
     inkscape:groupmode="layer"
     id="layer4"
     inkscape:label="Deco"
     style="display:none">
    <rect
       ry="20"
       rx="20"
       y="148.82268"
       x="85.899879"
       height="588.57324"
       width="570.54492"
       id="rect3856"
       style="fill:none;stroke:none" />
  </g>
</svg>
